<svg viewBox="0 0 25 24" xmlns="http://www.w3.org/2000/svg">
    <path fill-rule="evenodd" clip-rule="evenodd"
        d="M11.859 1.69214C12.1006 1.64483 12.3502 1.65772 12.5856 1.72966C12.8209 1.80155 13.0349 1.93023 13.2087 2.10433C13.2088 2.10443 13.2086 2.10422 13.2087 2.10433L22.9935 11.8891C23.1338 12.0272 23.2455 12.1917 23.3219 12.3733C23.3989 12.5563 23.4386 12.753 23.4386 12.9516C23.4386 13.1502 23.3989 13.3469 23.3219 13.5299C23.2455 13.7115 23.1338 13.876 22.9935 14.0141L14.5141 22.4935C14.376 22.6338 14.2115 22.7455 14.0299 22.8219C13.8469 22.8989 13.6502 22.9386 13.4516 22.9386C13.253 22.9386 13.0563 22.8989 12.8733 22.8219C12.6917 22.7455 12.5272 22.6338 12.3891 22.4935L2.60464 12.709C2.60453 12.7089 2.60474 12.7091 2.60464 12.709C2.43054 12.5352 2.30155 12.3209 2.22966 12.0856C2.15772 11.8502 2.14483 11.6006 2.19214 11.359L2.19266 11.3564L3.70203 3.7908C3.76132 3.49362 3.99362 3.26132 4.2908 3.20203L11.8564 1.69266L12.0032 2.42816L11.859 1.69214ZM12.1473 3.16418L5.07512 4.57512L3.66418 11.6473L3.66474 11.6478L13.4516 21.4347L21.9347 12.9516L12.1473 3.16418Z" />
    <path
        d="M8.375 9C8.99632 9 9.5 8.49632 9.5 7.875C9.5 7.25368 8.99632 6.75 8.375 6.75C7.75368 6.75 7.25 7.25368 7.25 7.875C7.25 8.49632 7.75368 9 8.375 9Z" />
</svg>